<svg class="svg-ic-sns-instagram" xmlns="http://www.w3.org/2000/svg" viewBox="0 0 40 40">
                        <title>인스타그램 아이콘</title>
                        <g transform="translate(-0.047 -0.047)">
                            <path d="M5.8,20.106A5.8,5.8,0,0,1,0,14.3V5.8A5.8,5.8,0,0,1,5.8,0h8.5a5.8,5.8,0,0,1,5.8,5.8v8.5a5.8,5.8,0,0,1-5.8,5.8ZM1.851,5.754v8.7A3.852,3.852,0,0,0,5.7,18.3h8.7a3.852,3.852,0,0,0,3.853-3.852v-8.7A3.853,3.853,0,0,0,14.4,1.9H5.7A3.852,3.852,0,0,0,1.851,5.754ZM4.836,10.1a5.217,5.217,0,1,1,5.217,5.216A5.217,5.217,0,0,1,4.836,10.1Zm1.836,0a3.382,3.382,0,1,0,3.381-3.382A3.381,3.381,0,0,0,6.671,10.1Zm7.557-5.416A1.216,1.216,0,1,1,15.444,5.9,1.216,1.216,0,0,1,14.228,4.687Z" transform="translate(10.047 10.047)" stroke="rgba(0,0,0,0)" stroke-miterlimit="10" stroke-width="1"></path>
                        </g>
                    </svg>
                    