<svg class="svg-leeum-custom custom-group" xmlns="http://www.w3.org/2000/svg" viewBox="0 0 35 35">
                <path class="custom-group" d="M22.61,17.5a5.11,5.11,0,1,0-5.11,5.11A5.113,5.113,0,0,0,22.61,17.5Zm-8.72,0a3.61,3.61,0,1,1,3.61,3.61A3.615,3.615,0,0,1,13.89,17.5Z"></path>
                <path class="custom-group" d="M28.91,18.25H35v-1.5H28.91A11.46,11.46,0,0,0,26.1,9.96l1.34-1.34a13.663,13.663,0,0,1,1.83,2.6l1.32-.71A15.111,15.111,0,0,0,28.5,7.56l1.9-1.9L29.34,4.6l-1.9,1.9a14.78,14.78,0,0,0-5.63-3.2,14.593,14.593,0,0,0-3.57-.61V0h-1.5V2.68A14.736,14.736,0,0,0,10.5,4.4,15.111,15.111,0,0,0,7.55,6.49l-1.9-1.9L4.59,5.66l1.9,1.9a14.78,14.78,0,0,0-3.2,5.63,14.593,14.593,0,0,0-.61,3.57H0v1.5H2.68A14.736,14.736,0,0,0,4.4,24.5l1.32-.71a13.157,13.157,0,0,1-1.54-5.54H6.8v-1.5H4.18a13.511,13.511,0,0,1,.54-3.13A13.34,13.34,0,0,1,7.54,8.61l1.85,1.85L10.45,9.4,8.61,7.55a13.663,13.663,0,0,1,2.6-1.83,13.157,13.157,0,0,1,5.54-1.54V6.8h1.5V4.18a13.511,13.511,0,0,1,3.13.54,13.34,13.34,0,0,1,5.01,2.82L25.04,8.9a10.876,10.876,0,0,0-1.63-1.2l-.77,1.29A9.945,9.945,0,0,1,12.38,26.03l-.77,1.29a11.377,11.377,0,0,0,5.16,1.6V35h1.5V28.9a12.647,12.647,0,0,0,2.01-.29,11.481,11.481,0,0,0,4.79-2.5l4.3,4.3,1.06-1.06-4.3-4.3a12,12,0,0,0,1.2-1.63A11.7,11.7,0,0,0,28.91,18.25Z"></path>
                <rect class="custom-group" width="6.81" height="1.5" transform="translate(4.599 29.346) rotate(-45)"></rect>
            </svg>