<svg class="svg-ic-sns-youtube" xmlns="http://www.w3.org/2000/svg" viewBox="0 0 40 40">
                        <title>유튜브 아이콘</title>
                        <g transform="translate(0.362)">
                           
                            <path d="M10,14c-.062,0-6.272,0-7.814-.418A2.506,2.506,0,0,1,.417,11.814,26.232,26.232,0,0,1,0,7,26.224,26.224,0,0,1,.417,2.187,2.5,2.5,0,0,1,2.186.419C3.727,0,9.937,0,10,0s6.272,0,7.814.419a2.5,2.5,0,0,1,1.769,1.767A26.156,26.156,0,0,1,20,7a26.163,26.163,0,0,1-.418,4.814,2.508,2.508,0,0,1-1.769,1.768C16.272,14,10.062,14,10,14ZM8.771,4.824h0V9.176L12.539,7,8.771,4.824Z" transform="translate(9.561 12.747)"></path>
                        </g>
                    </svg>